<!DOCTYPE svg PUBLIC "-//W3C//DTD SVG 1.1//EN" "http://www.w3.org/Graphics/SVG/1.1/DTD/svg11.dtd">
<svg width="533.601" height="74.702" viewBox="0 0 536.601 79.702" xmlns="http://www.w3.org/2000/svg"><g id="svgGroup" stroke-linecap="round" fill-rule="evenodd" font-size="9pt" stroke="#000000" stroke-width="1.25mm" fill="#000" style="stroke:#000000;stroke-width:1.25mm;fill:#000"><path d="M 131.2 73.501 L 122.2 73.501 L 122.2 21.501 L 130.9 21.501 L 130.9 30.201 Q 133.7 26.001 138 23.151 A 17.205 17.205 0 0 1 147.202 20.309 A 20.858 20.858 0 0 1 147.8 20.301 A 20.994 20.994 0 0 1 152.217 20.74 Q 155.203 21.383 157.485 22.964 A 13.128 13.128 0 0 1 157.95 23.301 A 15.751 15.751 0 0 1 163.398 30.99 A 19.154 19.154 0 0 1 163.5 31.301 Q 166.6 26.701 170.85 23.501 A 15.669 15.669 0 0 1 177.641 20.617 A 21.446 21.446 0 0 1 181.4 20.301 A 21.437 21.437 0 0 1 186.288 20.823 Q 189.874 21.663 192.363 23.852 A 12.994 12.994 0 0 1 194.05 25.651 A 18.992 18.992 0 0 1 197.461 32.923 Q 198.2 35.973 198.2 39.601 L 198.2 73.501 L 189.2 73.501 L 189.2 40.301 A 19.042 19.042 0 0 0 188.863 36.611 Q 188.427 34.406 187.428 32.662 A 10.982 10.982 0 0 0 186.7 31.551 A 7.974 7.974 0 0 0 180.887 28.255 A 10.678 10.678 0 0 0 179.8 28.201 A 11.926 11.926 0 0 0 173.041 30.328 A 15.996 15.996 0 0 0 171.45 31.551 Q 167.6 34.901 164.7 39.401 L 164.7 73.501 L 155.7 73.501 L 155.7 40.301 A 19.042 19.042 0 0 0 155.363 36.611 Q 154.927 34.406 153.928 32.662 A 10.982 10.982 0 0 0 153.2 31.551 A 7.974 7.974 0 0 0 147.387 28.255 A 10.678 10.678 0 0 0 146.3 28.201 A 12.02 12.02 0 0 0 139.981 30.029 A 16.244 16.244 0 0 0 138 31.451 Q 134.1 34.701 131.2 39.101 L 131.2 73.501 Z M 222.7 73.501 L 213.7 73.501 L 213.7 21.501 L 222.4 21.501 L 222.4 30.201 Q 225.2 26.001 229.5 23.151 A 17.205 17.205 0 0 1 238.702 20.309 A 20.858 20.858 0 0 1 239.3 20.301 A 20.994 20.994 0 0 1 243.717 20.74 Q 246.703 21.383 248.985 22.964 A 13.128 13.128 0 0 1 249.45 23.301 A 15.751 15.751 0 0 1 254.898 30.99 A 19.154 19.154 0 0 1 255 31.301 Q 258.1 26.701 262.35 23.501 A 15.669 15.669 0 0 1 269.141 20.617 A 21.446 21.446 0 0 1 272.9 20.301 A 21.437 21.437 0 0 1 277.788 20.823 Q 281.374 21.663 283.863 23.852 A 12.994 12.994 0 0 1 285.55 25.651 A 18.992 18.992 0 0 1 288.961 32.923 Q 289.7 35.973 289.7 39.601 L 289.7 73.501 L 280.7 73.501 L 280.7 40.301 A 19.042 19.042 0 0 0 280.363 36.611 Q 279.927 34.406 278.928 32.662 A 10.982 10.982 0 0 0 278.2 31.551 A 7.974 7.974 0 0 0 272.387 28.255 A 10.678 10.678 0 0 0 271.3 28.201 A 11.926 11.926 0 0 0 264.541 30.328 A 15.996 15.996 0 0 0 262.95 31.551 Q 259.1 34.901 256.2 39.401 L 256.2 73.501 L 247.2 73.501 L 247.2 40.301 A 19.042 19.042 0 0 0 246.863 36.611 Q 246.427 34.406 245.428 32.662 A 10.982 10.982 0 0 0 244.7 31.551 A 7.974 7.974 0 0 0 238.887 28.255 A 10.678 10.678 0 0 0 237.8 28.201 A 12.02 12.02 0 0 0 231.481 30.029 A 16.244 16.244 0 0 0 229.5 31.451 Q 225.6 34.701 222.7 39.101 L 222.7 73.501 Z M 0 67.601 L 4.8 59.601 Q 8.4 62.601 12.9 64.501 A 23.348 23.348 0 0 0 18.27 66.011 A 32.118 32.118 0 0 0 23.4 66.401 A 27.981 27.981 0 0 0 27.947 66.054 Q 30.37 65.655 32.331 64.794 A 13.701 13.701 0 0 0 34.8 63.401 Q 38.848 60.509 38.995 55.666 A 12.116 12.116 0 0 0 39 55.301 A 11.94 11.94 0 0 0 38.663 52.408 A 9.816 9.816 0 0 0 37.8 50.151 A 8.097 8.097 0 0 0 36.6 48.495 Q 35.33 47.114 33.184 45.772 A 25.81 25.81 0 0 0 33.15 45.751 Q 30.034 43.809 24.265 41.581 A 118.584 118.584 0 0 0 23 41.101 Q 15.8 38.301 11.5 35.451 A 21.931 21.931 0 0 1 8.411 33.003 Q 6.694 31.353 5.638 29.488 A 13.303 13.303 0 0 1 5.35 28.951 Q 3.5 25.301 3.5 20.301 Q 3.5 15.301 6.25 11.251 Q 9 7.201 14.35 4.751 A 25.558 25.558 0 0 1 20.25 2.916 Q 23.493 2.301 27.3 2.301 Q 33.5 2.301 38.45 3.551 Q 43.4 4.801 48.1 7.101 L 44.6 15.201 A 31.496 31.496 0 0 0 40.474 13.182 A 41.686 41.686 0 0 0 36.65 11.851 Q 32.1 10.501 27.1 10.501 A 27.187 27.187 0 0 0 23.07 10.781 Q 20.938 11.101 19.2 11.787 A 12.616 12.616 0 0 0 16.7 13.101 A 9.902 9.902 0 0 0 14.537 15.065 A 7.359 7.359 0 0 0 12.9 19.801 A 10.464 10.464 0 0 0 13.192 22.322 A 8.562 8.562 0 0 0 14 24.401 Q 15.056 26.32 18.091 28.147 A 23.503 23.503 0 0 0 18.35 28.301 A 33.003 33.003 0 0 0 20.566 29.473 Q 22.835 30.576 26.046 31.823 A 130.016 130.016 0 0 0 28.1 32.601 A 81.228 81.228 0 0 1 33.078 34.63 Q 37.464 36.601 40.45 38.701 A 26.044 26.044 0 0 1 43.49 41.178 Q 45.713 43.307 46.9 45.651 A 17.579 17.579 0 0 1 48.641 51.513 A 22.155 22.155 0 0 1 48.8 54.201 A 21.71 21.71 0 0 1 48.133 59.701 A 17.105 17.105 0 0 1 45.55 65.301 Q 42.3 69.901 36.55 72.301 A 30.521 30.521 0 0 1 29.14 74.305 A 40.027 40.027 0 0 1 23.4 74.701 Q 16.1 74.701 10.1 72.751 A 38.206 38.206 0 0 1 4.733 70.568 A 28.433 28.433 0 0 1 0 67.601 Z M 61.3 55.301 L 61.3 21.501 L 70.3 21.501 L 70.3 54.101 A 22.981 22.981 0 0 0 70.554 57.635 Q 70.842 59.482 71.457 60.97 A 10.136 10.136 0 0 0 72.9 63.451 A 8.404 8.404 0 0 0 78.013 66.471 A 12.807 12.807 0 0 0 80.5 66.701 Q 84.6 66.701 88.45 65.051 Q 92.3 63.401 95.3 60.601 L 95.3 21.501 L 104.3 21.501 L 104.3 60.001 A 15.602 15.602 0 0 0 104.402 61.854 Q 104.734 64.617 106.15 65.651 Q 108 67.001 110.2 67.001 L 108.3 74.001 Q 99 74.001 96.8 66.601 Q 93.3 70.201 88.7 72.451 Q 84.1 74.701 78.8 74.701 Q 74.3 74.701 70.3 72.801 A 14.441 14.441 0 0 1 64.79 68.162 A 18.266 18.266 0 0 1 63.8 66.651 A 16.24 16.24 0 0 1 62.136 62.557 Q 61.3 59.405 61.3 55.301 Z M 365.9 73.501 L 325.7 73.501 L 325.7 66.401 L 354.4 29.301 L 326.3 29.301 L 326.3 21.501 L 365.4 21.501 L 365.4 28.401 L 336.8 65.501 L 365.9 65.501 L 365.9 73.501 Z M 418.5 51.201 L 382.1 51.201 A 24.088 24.088 0 0 0 383.239 56.226 Q 384.575 60.038 387.2 62.601 Q 391.4 66.701 398.3 66.701 Q 402.8 66.701 406.4 65.751 Q 410 64.801 413.3 63.301 L 415.4 71.001 A 40.77 40.77 0 0 1 411.065 72.627 A 51.863 51.863 0 0 1 407.3 73.651 A 38.914 38.914 0 0 1 402.208 74.47 A 52.025 52.025 0 0 1 397.2 74.701 A 28.318 28.318 0 0 1 389.454 73.695 A 21.108 21.108 0 0 1 379.45 67.551 A 23.521 23.521 0 0 1 374.245 58.011 Q 372.9 53.346 372.9 47.501 A 35.359 35.359 0 0 1 373.733 39.679 A 28.84 28.84 0 0 1 375.85 33.551 A 24.642 24.642 0 0 1 380.866 26.469 A 22.887 22.887 0 0 1 384.1 23.851 A 21.048 21.048 0 0 1 394.359 20.379 A 26.205 26.205 0 0 1 396.4 20.301 Q 403.9 20.301 408.85 23.551 Q 413.8 26.801 416.3 32.301 A 28.185 28.185 0 0 1 418.726 42.164 A 33.434 33.434 0 0 1 418.8 44.401 A 75.204 75.204 0 0 1 418.509 51.097 A 69.426 69.426 0 0 1 418.5 51.201 Z M 494.4 71.251 A 24.559 24.559 0 0 0 498.998 73.34 Q 503.053 74.701 507.7 74.701 Q 515.1 74.701 520.95 71.301 Q 526.8 67.901 530.2 61.751 A 26.255 26.255 0 0 0 532.853 54.609 A 34.184 34.184 0 0 0 533.6 47.301 A 34.542 34.542 0 0 0 533.115 41.392 A 25.795 25.795 0 0 0 530.15 32.951 Q 526.7 26.901 520.85 23.601 A 24.848 24.848 0 0 0 516.209 21.574 A 27.738 27.738 0 0 0 507.7 20.301 A 31.325 31.325 0 0 0 506.12 20.34 A 26.169 26.169 0 0 0 494.5 23.601 Q 488.6 26.901 485.2 33.001 A 26.023 26.023 0 0 0 482.451 40.591 A 35.006 35.006 0 0 0 481.8 47.501 A 34.82 34.82 0 0 0 482.065 51.854 A 27.451 27.451 0 0 0 485.15 61.651 Q 488.5 67.801 494.4 71.251 Z M 314.2 73.501 L 305.2 73.501 L 305.2 21.501 L 314.2 21.501 L 314.2 73.501 Z M 469.8 73.501 L 460.8 73.501 L 460.8 21.501 L 469.8 21.501 L 469.8 73.501 Z M 507.7 66.701 Q 515.6 66.701 520 61.351 A 18.802 18.802 0 0 0 523.819 53.261 A 27.105 27.105 0 0 0 524.4 47.501 Q 524.4 42.301 522.2 37.951 A 19.198 19.198 0 0 0 518.028 32.382 A 18.17 18.17 0 0 0 516.25 30.951 Q 512.5 28.301 507.7 28.301 A 19.249 19.249 0 0 0 502.474 28.972 A 14.037 14.037 0 0 0 495.4 33.501 A 17.878 17.878 0 0 0 491.726 40.874 Q 491 43.807 491 47.301 Q 491 52.501 493.2 56.951 A 19.437 19.437 0 0 0 496.73 61.991 A 17.627 17.627 0 0 0 499.15 64.051 Q 502.9 66.701 507.7 66.701 Z M 382 43.901 L 410.5 43.901 A 24.355 24.355 0 0 0 410.096 39.315 Q 409.6 36.731 408.496 34.708 A 12.422 12.422 0 0 0 406.7 32.201 A 12.488 12.488 0 0 0 399.739 28.425 A 18.395 18.395 0 0 0 396.2 28.101 A 13.58 13.58 0 0 0 391.088 29.036 A 12.524 12.524 0 0 0 386.6 32.151 Q 382.8 36.201 382 43.901 Z M 433.163 72.763 A 6.418 6.418 0 0 0 437.8 74.701 A 8.605 8.605 0 0 0 438.422 74.679 A 6.461 6.461 0 0 0 442.6 72.851 Q 444.5 71.001 444.5 68.001 A 6.225 6.225 0 0 0 443.921 65.329 A 6.955 6.955 0 0 0 442.45 63.301 A 8.478 8.478 0 0 0 441.929 62.832 A 6.325 6.325 0 0 0 437.8 61.301 A 8.813 8.813 0 0 0 435.947 61.485 A 5.979 5.979 0 0 0 432.9 63.101 A 5.927 5.927 0 0 0 431.332 65.94 A 8.624 8.624 0 0 0 431.1 68.001 Q 431.1 70.701 433.1 72.701 A 8.317 8.317 0 0 0 433.163 72.763 Z M 305.337 10.789 A 5.973 5.973 0 0 0 309.7 12.601 A 8.175 8.175 0 0 0 311.196 12.47 A 5.647 5.647 0 0 0 314.3 10.851 Q 316 9.101 316 6.301 A 7.26 7.26 0 0 0 316 6.22 A 6.06 6.06 0 0 0 314.15 1.851 A 7.395 7.395 0 0 0 314.092 1.793 A 6.059 6.059 0 0 0 309.7 0.001 A 8.264 8.264 0 0 0 308.044 0.158 A 5.661 5.661 0 0 0 305.1 1.701 A 5.588 5.588 0 0 0 303.629 4.333 A 7.987 7.987 0 0 0 303.4 6.301 A 5.992 5.992 0 0 0 303.892 8.719 A 6.643 6.643 0 0 0 305.25 10.701 A 7.466 7.466 0 0 0 305.337 10.789 Z M 460.937 10.789 A 5.973 5.973 0 0 0 465.3 12.601 A 8.175 8.175 0 0 0 466.796 12.47 A 5.647 5.647 0 0 0 469.9 10.851 Q 471.6 9.101 471.6 6.301 A 7.26 7.26 0 0 0 471.6 6.22 A 6.06 6.06 0 0 0 469.75 1.851 A 7.395 7.395 0 0 0 469.692 1.793 A 6.059 6.059 0 0 0 465.3 0.001 A 8.264 8.264 0 0 0 463.644 0.158 A 5.661 5.661 0 0 0 460.7 1.701 A 5.588 5.588 0 0 0 459.229 4.333 A 7.987 7.987 0 0 0 459 6.301 A 5.992 5.992 0 0 0 459.492 8.719 A 6.643 6.643 0 0 0 460.85 10.701 A 7.466 7.466 0 0 0 460.937 10.789 Z"/></g></svg>